<svg width="66" height="54" viewBox="0 0 66 54" fill="none" xmlns="http://www.w3.org/2000/svg">
<g id="FanOff 1" clip-path="url(#clip0_2_54)">
<g id="Q_ON 1">
<g id="layer2">
<path id="path12903" d="M49.9796 25.8773C49.9796 32.3764 47.4219 38.6145 42.8589 43.2428C38.2963 47.8709 32.0954 50.5172 25.5968 50.6098C19.0985 50.7024 12.8247 48.2333 8.13193 43.737C3.43936 39.2407 0.704954 33.0778 0.519983 26.5814C0.334987 20.0849 2.71432 13.7766 7.14349 9.02051C11.5727 4.26435 17.6957 1.44251 24.1889 1.16509C30.6821 0.887643 37.0238 3.17695 41.8424 7.53797C46.6612 11.899 49.5699 17.9814 49.9397 24.4699" fill="#3F4C40"/>
</g>
<g id="layer4">
<path id="rect29661" d="M36.0709 47.7768C32.7995 48.6158 29.2167 49.0657 25.5768 49.0946C22.3216 49.1179 19.0894 48.8039 16.0654 48.1706C11.6487 49.8435 10.4803 52.1985 8.86957 54.4606H46.6162C44.5762 51.8541 43.7736 48.93 36.0709 47.7768Z" fill="#666666" stroke="#535353" stroke-width="0.18512" stroke-linecap="square"/>
</g>
<g id="layer1">
<path id="rect6772" opacity="0.801282" d="M39.7446 39.9688C37.1773 44.4666 33.8594 45.3283 31.0309 45.4743C30.5144 45.501 29.7354 45.4168 29.2774 45.4177C28.5882 45.0242 28.1367 44.4509 28.3096 43.6897C29.955 38.9172 29.3996 34.5215 27.6633 30.2546C28.8961 29.4325 29.6396 28.4588 30.2207 27.4349C32.9337 28.7644 34.5848 30.7542 36.3721 32.6595C37.9362 34.9021 39.5107 37.1968 39.7448 39.969L39.7446 39.9688Z" fill="#999999"/>
<path id="path9203" opacity="0.801282" d="M10.8755 11.2119C13.443 6.71402 16.7607 5.85227 19.5895 5.70619C20.1057 5.67955 20.8847 5.76392 21.3427 5.76325C22.0318 6.15678 22.4837 6.72997 22.3105 7.49111C20.6651 12.2636 21.2205 16.6593 22.9568 20.9262C21.724 21.7483 20.9805 22.722 20.3994 23.746C17.6864 22.4167 16.0353 20.4266 14.248 18.5212C12.6838 16.2789 11.1094 13.9841 10.8755 11.2119Z" fill="#808080"/>
<path id="path9205" opacity="0.801282" d="M5.52861 30.8144C2.90083 26.3517 3.80142 23.0441 5.08005 20.5167C5.31344 20.0555 5.77378 19.4212 6.00075 19.0235C6.68462 18.621 7.40653 18.5137 7.98106 19.0421C11.3053 22.8411 15.3961 24.5433 19.9617 25.1563C20.0626 26.6348 20.5382 27.7637 21.1382 28.7769C18.6366 30.4709 16.0891 30.9151 13.5476 31.5193C10.8246 31.7627 8.05086 31.9887 5.52863 30.8144H5.52861Z" fill="#999999"/>
<path id="path9207" opacity="0.801282" d="M44.5429 20.8248C47.1706 25.2876 46.2699 28.5952 44.9913 31.1225C44.7579 31.5839 44.2977 32.218 44.0707 32.6157C43.3867 33.0183 42.665 33.1256 42.0902 32.5973C38.766 28.7982 34.6754 27.0962 30.1095 26.4829C30.0087 25.0045 29.5331 23.8755 28.9331 22.8624C31.4349 21.1687 33.9821 20.7244 36.5237 20.1201C39.2469 19.8768 42.0207 19.6505 44.5429 20.8248Z" fill="#808080"/>
<path id="path9209" opacity="0.801282" d="M30.3322 5.91305C35.5108 5.84083 37.938 8.2614 39.5002 10.6241C39.7852 11.0553 40.108 11.7694 40.3414 12.1635C40.3522 12.957 40.0879 13.6372 39.3444 13.8746C34.3975 14.8807 30.8927 17.5913 28.0985 21.2539C26.7642 20.6093 25.5478 20.4632 24.3706 20.4828C24.1382 17.4704 25.014 15.0375 25.7479 12.5304C26.8855 10.0443 28.0627 7.52261 30.3322 5.91327V5.91305Z" fill="#808080"/>
<path id="path9211" opacity="0.801282" d="M20.0785 45.3354C14.8999 45.4077 12.4727 42.9871 10.9105 40.6246C10.6255 40.1933 10.3027 39.4792 10.0695 39.0851C10.0585 38.2917 10.3228 37.6114 11.0665 37.374C16.0135 36.3678 19.5182 33.6572 22.3122 29.9948C23.6464 30.6394 24.8629 30.7853 26.0403 30.7657C26.2725 33.7782 25.3967 36.211 24.6628 38.718C23.5252 41.2043 22.348 43.726 20.0785 45.3352V45.3354Z" fill="#999999"/>
<path id="path9235" opacity="0.801282" d="M20.5297 28.0772C19.887 26.8581 19.7501 25.4355 20.1483 24.1163C20.5465 22.7972 21.448 21.6878 22.6578 21.0281C23.8674 20.3682 25.2883 20.211 26.6129 20.5905C27.9376 20.9698 29.0597 21.8554 29.7366 23.0556C30.4135 24.2558 30.5908 25.6741 30.2303 27.0041C29.8698 28.3339 29.0004 29.4685 27.81 30.1625C26.6195 30.8563 25.2038 31.054 23.8688 30.7123C22.5339 30.371 21.387 29.5177 20.6763 28.3373" fill="#B0D6B2"/>
<path id="rect9339" opacity="0.801282" d="M26.2223 29.8074L27.1306 29.4668C27.2964 29.4046 27.3848 29.2184 27.3285 29.0507C27.2722 28.8829 27.0919 28.7975 26.9264 28.8597L26.018 29.2003C25.8525 29.2623 25.7638 29.4486 25.8202 29.6164C25.8767 29.7842 26.0567 29.8696 26.2223 29.8074Z" fill="#ECECEC"/>
<path id="rect9339-8" opacity="0.801282" d="M23.6342 22.0912L24.5425 21.7505C24.7081 21.6883 24.7967 21.502 24.7404 21.3342C24.6838 21.1667 24.5038 21.081 24.3383 21.1432L23.43 21.4838C23.2642 21.546 23.1758 21.7324 23.2321 21.8999C23.2884 22.0677 23.4687 22.1531 23.6342 22.0912Z" fill="#ECECEC"/>
<path id="path11875" opacity="0.801282" d="M22.274 27.1143C21.8783 26.3637 21.794 25.4874 22.0392 24.6749C22.2846 23.8625 22.8395 23.1793 23.5845 22.773C24.3297 22.3667 25.2045 22.27 26.0205 22.5036C26.8362 22.7372 27.5271 23.2826 27.9442 24.0217C28.361 24.7608 28.4702 25.6344 28.2483 26.4533C28.0262 27.2725 27.4906 27.9712 26.7576 28.3985C26.0244 28.8259 25.1526 28.9476 24.3304 28.7372C23.5083 28.5269 22.802 28.0013 22.3644 27.2745" fill="#494949"/>
<path id="path11966" opacity="0.801282" d="M23.4885 26.4741C23.261 26.0426 23.2125 25.5389 23.3536 25.0718C23.4946 24.6046 23.8137 24.2118 24.2421 23.9781C24.6704 23.7445 25.1734 23.6889 25.6426 23.8233C26.1116 23.9575 26.5088 24.2713 26.7486 24.6962C26.9883 25.1211 27.051 25.6233 26.9234 26.0943C26.7958 26.5652 26.4878 26.9669 26.0663 27.2127C25.6448 27.4584 25.1435 27.5282 24.6709 27.4074C24.1982 27.2864 23.7922 26.9842 23.5404 26.5662" fill="#ECECEC"/>
</g>
<g id="layer7">
<path id="rect15660" d="M30.6689 1.73016H63.4784V17.4092H45.005C41.6565 8.99229 36.9444 3.61713 30.6689 1.73016Z" fill="#808080"/>
<path id="rect26505" d="M66.1536 0.458893H62.4802V18.8262H66.1536V0.458893Z" fill="#808080" stroke="#7E7E7E" stroke-width="0.245" stroke-linecap="square"/>
</g>
<g id="layer5">
<path id="rect6140" opacity="0.801282" d="M43.2167 9.47107H7.49734V10.2034H43.2167V9.47107Z" stroke="#323634" stroke-width="0.270321" stroke-linecap="square"/>
<path id="rect6140-0" opacity="0.801282" d="M45.1705 11.9574H4.93741V12.7964H45.1705V11.9574Z" stroke="#323634" stroke-width="0.275909" stroke-linecap="square"/>
<path id="rect6140-5" opacity="0.801282" d="M46.985 14.4731H3.7291V15.36H46.985V14.4731Z" stroke="#323634" stroke-width="0.27768" stroke-linecap="square"/>
<path id="rect6140-6" opacity="0.801282" d="M47.5887 16.9816H2.25961V17.9308H47.5887V16.9816Z" stroke="#323634" stroke-width="0.275402" stroke-linecap="square"/>
<path id="rect6140-8" opacity="0.801282" d="M48.5391 19.5074H1.569V20.4843H48.5391V19.5074Z" stroke="#323634" stroke-width="0.27613" stroke-linecap="square"/>
<path id="rect6140-4" opacity="0.801282" d="M48.9706 22.0344H0.964203V23.0365H48.9706V22.0344Z" stroke="#323634" stroke-width="0.275728" stroke-linecap="square"/>
<path id="rect6140-2" opacity="0.801282" d="M49.1866 24.5715H0.834778V25.5788H49.1866V24.5715Z" stroke="#323634" stroke-width="0.275953" stroke-linecap="square"/>
<path id="rect6140-9" opacity="0.801282" d="M48.9704 27.1082H0.704773V28.1216H48.9704V27.1082Z" stroke="#323634" stroke-width="0.275096" stroke-linecap="square"/>
<path id="rect6140-0-6" opacity="0.801282" d="M48.7115 29.6588H1.22333V30.6504H48.7115V29.6588Z" stroke="#323634" stroke-width="0.275709" stroke-linecap="square"/>
<path id="rect6140-5-1" opacity="0.801282" d="M48.1933 32.2109H1.828V33.1775H48.1933V32.2109Z" stroke="#323634" stroke-width="0.27589" stroke-linecap="square"/>
<path id="rect6140-6-5" opacity="0.801282" d="M47.3442 34.7831H3.36981V35.6848H47.3442V34.7831Z" stroke="#323634" stroke-width="0.270931" stroke-linecap="square"/>
<path id="rect6140-8-7" opacity="0.801282" d="M46.1078 37.3481H4.60626V38.1989H46.1078V37.3481Z" stroke="#323634" stroke-width="0.267485" stroke-linecap="square"/>
<path id="rect6140-4-1" opacity="0.801282" d="M44.6161 39.9183H6.09802V40.7081H44.6161V39.9183Z" stroke="#323634" stroke-width="0.271675" stroke-linecap="square"/>
<path id="rect6140-2-3" opacity="0.801282" d="M42.5947 42.4995H8.11942V43.2063H42.5947V42.4995Z" stroke="#323634" stroke-width="0.269143" stroke-linecap="square"/>
<path id="rect6383" opacity="0.801282" d="M8.55485 9.19293L8.44269 43.3866L9.14359 43.3888L9.25599 9.19523L8.55485 9.19293Z" stroke="#323634" stroke-width="0.268898" stroke-linecap="square"/>
<path id="rect6385" opacity="0.801282" d="M11.056 6.95682L10.9289 45.6389L11.7219 45.6416L11.849 6.95944L11.056 6.95682Z" stroke="#323634" stroke-width="0.272233" stroke-linecap="square"/>
<path id="rect6387" opacity="0.801282" d="M13.7685 5.47424L13.6316 47.1252L14.4855 47.1281L14.6222 5.47703L13.7685 5.47424Z" stroke="#323634" stroke-width="0.27227" stroke-linecap="square"/>
<path id="rect6389" opacity="0.801282" d="M16.2395 4.38147L16.0958 48.2341L16.9948 48.237L17.1388 4.38441L16.2395 4.38147Z" stroke="#323634" stroke-width="0.27227" stroke-linecap="square"/>
<path id="rect6391" opacity="0.801282" d="M18.7159 3.58511L18.5668 49.0469L19.4986 49.0498L19.648 3.58817L18.7159 3.58511Z" stroke="#323634" stroke-width="0.27227" stroke-linecap="square"/>
<path id="rect6393" opacity="0.801282" d="M21.2053 2.15112L21.0557 49.341L21.9897 49.3442L22.1393 2.15431L21.2053 2.15112Z" stroke="#323634" stroke-width="0.27227" stroke-linecap="square"/>
<path id="rect6395" opacity="0.801282" d="M23.5534 2.35071L23.3994 49.8034L24.3613 49.8068L24.5154 2.35392L23.5534 2.35071Z" stroke="#323634" stroke-width="0.27227" stroke-linecap="square"/>
<path id="rect6397" opacity="0.801282" d="M26.177 2.45413L26.0239 49.6324L26.9788 49.6356L27.1316 2.45729L26.177 2.45413Z" stroke="#323634" stroke-width="0.27227" stroke-linecap="square"/>
<path id="rect6399" opacity="0.801282" d="M28.7993 2.92175L28.6473 49.2671L29.5972 49.27L29.7495 2.92486L28.7993 2.92175Z" stroke="#323634" stroke-width="0.27227" stroke-linecap="square"/>
<path id="rect6401" opacity="0.801282" d="M31.1685 2.77719L31.0198 48.729L31.9478 48.7322L32.0964 2.7803L31.1685 2.77719Z" stroke="#323634" stroke-width="0.27227" stroke-linecap="square"/>
<path id="rect6403" opacity="0.801282" d="M33.6581 3.71829L33.5092 48.1114L34.4386 48.1143L34.5875 3.72128L33.6581 3.71829Z" stroke="#323634" stroke-width="0.27227" stroke-linecap="square"/>
<path id="rect6405" opacity="0.801282" d="M36.4118 4.68561L36.269 46.9133L37.1594 46.9163L37.302 4.68845L36.4118 4.68561Z" stroke="#323634" stroke-width="0.272961" stroke-linecap="square"/>
<path id="rect6407" opacity="0.801282" d="M38.9746 6.0564L38.8409 45.6208L39.6758 45.6235L39.8095 6.05907L38.9746 6.0564Z" stroke="#323634" stroke-width="0.27768" stroke-linecap="square"/>
<path id="rect6409" opacity="0.801282" d="M41.5546 8.397L41.4363 43.7255L42.1749 43.7279L42.2932 8.3994L41.5546 8.397Z" stroke="#323634" stroke-width="0.27768" stroke-linecap="square"/>
</g>
<g id="layer3">
<path id="path13010" d="M25.962 1.06549C25.3509 1.0462 24.7397 1.04955 24.1291 1.07553C17.6357 1.35295 11.5125 4.17487 7.08339 8.93113C2.65421 13.6874 0.274932 19.9957 0.460026 26.4922C0.645046 32.9889 3.37953 39.1515 8.07216 43.6478C12.7649 48.1444 19.0387 50.613 25.5373 50.5204C32.0357 50.4281 38.2365 47.7815 42.7992 43.1534C47.3619 38.5253 49.9198 32.2873 49.9198 25.7882L49.8797 24.3805C49.5278 18.2083 46.8775 12.3916 42.4504 8.07624C38.0237 3.76086 32.1412 1.2597 25.962 1.06549ZM25.8657 4.12527C31.2802 4.2954 36.4348 6.48695 40.3137 10.2682C44.1929 14.0495 46.5153 19.1463 46.8236 24.5546L46.8586 25.7882C46.8586 31.483 44.6173 36.9489 40.6193 41.0044C36.6214 45.0597 31.1878 47.3786 25.4937 47.4597C19.7994 47.5407 14.3019 45.3776 10.19 41.4374C6.07823 37.4975 3.68227 32.0972 3.5203 26.4048C3.35817 20.7122 5.44304 15.1847 9.32408 11.0171C13.205 6.84959 18.5705 4.37696 24.2602 4.13389C24.795 4.11119 25.3306 4.10833 25.8657 4.12527Z" fill="#808080"/>
</g>
</g>
</g>
<defs>
<clipPath id="clip0_2_54">
<rect width="66" height="54" fill="white"/>
</clipPath>
</defs>
</svg>
