<?xml version="1.0" encoding="UTF-8" standalone="no"?>
<svg
    width="58"
   height="32"
   viewBox="0 0 342 298.9"
   fill="none"
   oncontextmenu="return false"
   version="1.1"
   id="svg1012"
   sodipodi:docname="FanOndocnguoc - Copy.svg"
   inkscape:version="1.1 (c68e22c387, 2021-05-23)"
   xmlns:inkscape="http://www.inkscape.org/namespaces/inkscape"
   xmlns:sodipodi="http://sodipodi.sourceforge.net/DTD/sodipodi-0.dtd"
   xmlns="http://www.w3.org/2000/svg"
   xmlns:svg="http://www.w3.org/2000/svg">
  <sodipodi:namedview
     id="namedview1014"
     pagecolor="#505050"
     bordercolor="#eeeeee"
     borderopacity="1"
     inkscape:pageshadow="0"
     inkscape:pageopacity="0"
     inkscape:pagecheckerboard="0"
     showgrid="false"
     inkscape:zoom="8.0115198"
     inkscape:cx="-1.5602533"
     inkscape:cy="37.758129"
     inkscape:window-width="1920"
     inkscape:window-height="1017"
     inkscape:window-x="-8"
     inkscape:window-y="-8"
     inkscape:window-maximized="1"
     inkscape:current-layer="Q_ON 1"
     showguides="false"
     inkscape:guide-bbox="true">
    <sodipodi:guide
       position="255.0662,-1.241218"
       orientation="0,-1"
       id="guide892" />
  </sodipodi:namedview>

  <g
     id="Q_ON 1">
    <g
       id="layer2"
       transform="translate(-2.447496,-5.769288)">
      <path
         id="path12903"
         d="m 273,121.999 c 0,26.538 -10.444,52.01 -29.076,70.909 -18.631,18.898 -43.951,29.704 -70.487,30.082 -26.535,0.378 -52.153,-9.704 -71.315,-28.064 C 82.9607,176.566 71.7952,151.401 71.0399,124.874 70.2845,98.3468 80.0001,72.5879 98.0859,53.167 116.172,33.746 141.174,22.2235 167.688,21.0907 c 26.514,-1.1329 52.409,8.2151 72.085,26.0226 19.677,17.8076 31.554,42.6439 33.064,69.1387"
         fill="#3f4c40" />
    </g>
    <g
       id="layer4"
       transform="matrix(1,0,0,-1,-7.109726,242.20308)"
       style="fill:#bbbbbb;fill-opacity:0.97435898">
      <path
         id="rect29661"
         d="m 216.206,211.422 c -13.358,3.426 -27.988,5.263 -42.851,5.381 -13.292,0.095 -26.49,-1.187 -38.838,-3.773 -18.035,6.831 -22.806,16.447 -29.383,25.684 h 154.132 c -8.33,-10.643 -11.607,-22.583 -43.06,-27.292 z"
         fill="url(#paint0_linear_0:1)"
         stroke="#b9e8b4"
         stroke-width="0.755906"
         stroke-linecap="square"
         style="fill:#9e9e9e;fill-opacity:0.97435898;stroke:#c0e0bc;stroke-opacity:1" />
    </g>
    <g
       id="layer1"
       transform="translate(-2.447496,-5.769288)">
      <path
         id="rect6772"
         opacity="0.801282"
         d="m 231.207,179.539 c -10.483,18.366 -24.031,21.885 -35.581,22.481 -2.109,0.109 -5.29,-0.235 -7.16,-0.231 -2.814,-1.607 -4.658,-3.948 -3.952,-7.056 6.719,-19.488 4.451,-37.437 -2.639,-54.86 5.034,-3.357 8.07,-7.333 10.443,-11.514 11.078,5.429 17.82,13.554 25.118,21.334 6.387,9.157 12.816,18.527 13.772,29.847 z"
         fill="#39ab40" />
      <path
         id="path9203"
         opacity="0.801282"
         d="m 113.325,62.1151 c 10.484,-18.3662 24.031,-21.885 35.582,-22.4815 2.108,-0.1088 5.289,0.2357 7.159,0.233 2.814,1.6069 4.659,3.9474 3.952,7.0554 -6.719,19.4877 -4.451,37.4369 2.639,54.86 -5.034,3.357 -8.07,7.333 -10.443,11.514 -11.078,-5.428 -17.82,-13.554 -25.118,-21.3343 -6.387,-9.1562 -12.816,-18.5265 -13.771,-29.8466 z"
         fill="#39ab40" />
      <path
         id="path9205"
         opacity="0.801282"
         d="M 91.4918,142.159 C 80.7617,123.936 84.4391,110.43 89.6602,100.11 c 0.953,-1.8835 2.8327,-4.4733 3.7595,-6.0972 2.7925,-1.6436 5.7403,-2.0817 8.0863,0.0759 13.574,15.5123 30.278,22.4633 48.921,24.9663 0.412,6.037 2.354,10.647 4.804,14.784 -10.215,6.917 -20.617,8.731 -30.995,11.198 -11.119,0.994 -22.445,1.917 -32.7441,-2.878 z"
         fill="#39ab40" />
      <path
         id="path9207"
         opacity="0.801282"
         d="m 250.8,101.368 c 10.73,18.223 7.052,31.729 1.831,42.049 -0.953,1.884 -2.832,4.473 -3.759,6.097 -2.793,1.644 -5.74,2.082 -8.087,-0.075 -13.574,-15.513 -30.277,-22.463 -48.921,-24.967 -0.412,-6.037 -2.354,-10.647 -4.804,-14.784 10.216,-6.916 20.617,-8.73 30.995,-11.1975 11.12,-0.9936 22.446,-1.9175 32.745,2.8775 z"
         fill="#39ab40" />
      <path
         id="path9209"
         opacity="0.801282"
         d="m 192.773,40.4782 c 21.146,-0.2949 31.057,9.5891 37.436,19.2367 1.164,1.7607 2.482,4.6769 3.435,6.286 0.044,3.24 -1.035,6.0177 -4.071,6.9871 -20.2,4.1083 -34.511,15.1764 -45.921,30.132 -5.448,-2.632 -10.415,-3.2288 -15.222,-3.1487 -0.949,-12.3004 2.627,-22.2348 5.624,-32.4721 4.645,-10.1518 9.452,-20.4486 18.719,-27.0201 z"
         fill="#39ab40" />
      <path
         id="path9211"
         opacity="0.801282"
         d="m 150.904,201.453 c -21.146,0.295 -31.057,-9.589 -37.436,-19.236 -1.164,-1.761 -2.482,-4.677 -3.434,-6.286 -0.045,-3.24 1.034,-6.018 4.071,-6.987 20.2,-4.109 34.511,-15.177 45.92,-30.132 5.448,2.632 10.415,3.228 15.223,3.148 0.948,12.301 -2.628,22.235 -5.625,32.472 -4.645,10.152 -9.452,20.449 -18.719,27.02 z"
         fill="#39ab40" />
      <path
         id="path9235"
         opacity="0.801282"
         d="m 152.746,130.982 c -2.624,-4.978 -3.183,-10.787 -1.557,-16.174 1.626,-5.386 5.307,-9.916 10.247,-12.61 4.939,-2.6945 10.741,-3.3363 16.15,-1.787 5.409,1.549 9.991,5.165 12.755,10.066 2.764,4.901 3.488,10.692 2.016,16.123 -1.472,5.43 -5.022,10.063 -9.883,12.897 -4.861,2.833 -10.642,3.64 -16.093,2.245 -5.451,-1.394 -10.134,-4.878 -13.036,-9.698"
         fill="#b0d6b2" />
      <path
         id="rect9339"
         opacity="0.801282"
         d="m 175.991,138.047 3.709,-1.391 c 0.677,-0.254 1.038,-1.014 0.808,-1.699 -0.23,-0.685 -0.966,-1.034 -1.642,-0.78 l -3.709,1.391 c -0.676,0.253 -1.038,1.014 -0.808,1.699 0.231,0.685 0.966,1.034 1.642,0.78 z"
         fill="#ececec" />
      <path
         id="rect9339-8"
         opacity="0.801282"
         d="m 165.423,106.539 3.709,-1.391 c 0.676,-0.254 1.038,-1.015 0.808,-1.7 -0.231,-0.684 -0.966,-1.034 -1.642,-0.78 l -3.709,1.391 c -0.677,0.254 -1.038,1.015 -0.808,1.699 0.23,0.685 0.966,1.034 1.642,0.781 z"
         fill="#ececec" />
      <path
         id="path11875"
         opacity="0.801282"
         d="m 159.869,127.05 c -1.616,-3.065 -1.96,-6.643 -0.959,-9.961 1.002,-3.317 3.268,-6.107 6.31,-7.766 3.043,-1.659 6.615,-2.054 9.947,-1.1 3.331,0.954 6.152,3.181 7.855,6.199 1.702,3.018 2.148,6.585 1.242,9.929 -0.907,3.345 -3.094,6.198 -6.087,7.943 -2.994,1.745 -6.554,2.242 -9.911,1.383 -3.357,-0.859 -6.241,-3.005 -8.028,-5.973"
         fill="#494949" />
      <path
         id="path11966"
         opacity="0.801282"
         d="m 164.828,124.436 c -0.929,-1.762 -1.127,-3.819 -0.551,-5.726 0.576,-1.908 1.879,-3.512 3.628,-4.466 1.749,-0.954 3.803,-1.181 5.719,-0.632 1.915,0.548 3.537,1.829 4.516,3.564 0.979,1.735 1.235,3.786 0.714,5.709 -0.521,1.923 -1.779,3.563 -3.5,4.567 -1.721,1.003 -3.768,1.288 -5.698,0.795 -1.93,-0.494 -3.588,-1.728 -4.616,-3.435"
         fill="#ececec" />
    </g>
    <g
       id="layer7"
       transform="matrix(0,0.77839449,1,0,58.667804,13.697746)"
       style="fill:#969696;fill-opacity:0.97435898">
      <path
         id="rect15660"
         d="M 194.148,23.3981 H 328.12 V 87.4207 H 252.687 C 239.014,53.0518 219.773,31.1032 194.148,23.3981 Z"
         fill="url(#paint1_linear_0:1)"
         style="fill:#969696;fill-opacity:0.97435898" />
      <path
         id="rect26505"
         d="m 339.044,18.2071 h -15 v 75 h 15 z"
         fill="url(#paint2_linear_0:1)"
         stroke="#23ee8a"
         stroke-width="1.13386"
         stroke-linecap="square"
         style="fill:#9e9e9e;fill-opacity:0.97435898;stroke:#9e9e9e;stroke-opacity:1" />
    </g>
    <g
       id="layer5"
       transform="translate(-2.447496,-5.769288)">
      <path
         id="rect6140"
         opacity="0.801282"
         d="M 245.385,55.0068 H 99.5308 V 57.997 H 245.385 Z"
         stroke="#323634"
         stroke-width="1.10381"
         stroke-linecap="square" />
      <path
         id="rect6140-0"
         opacity="0.801282"
         d="M 253.363,65.1592 H 89.0778 v 3.4259 H 253.363 Z"
         stroke="#323634"
         stroke-width="1.12663"
         stroke-linecap="square" />
      <path
         id="rect6140-5"
         opacity="0.801282"
         d="M 260.772,75.4319 H 84.1438 v 3.6212 H 260.772 Z"
         stroke="#323634"
         stroke-width="1.13386"
         stroke-linecap="square" />
      <path
         id="rect6140-6"
         opacity="0.801282"
         d="M 263.237,85.6747 H 78.1434 v 3.8762 H 263.237 Z"
         stroke="#323634"
         stroke-width="1.12456"
         stroke-linecap="square" />
      <path
         id="rect6140-8"
         opacity="0.801282"
         d="M 267.118,95.9886 H 75.3234 v 3.989 H 267.118 Z"
         stroke="#323634"
         stroke-width="1.12753"
         stroke-linecap="square" />
      <path
         id="rect6140-4"
         opacity="0.801282"
         d="M 268.88,106.307 H 72.8539 v 4.092 H 268.88 Z"
         stroke="#323634"
         stroke-width="1.12589"
         stroke-linecap="square" />
      <path
         id="rect6140-2"
         opacity="0.801282"
         d="M 269.762,116.667 H 72.3253 v 4.113 H 269.762 Z"
         stroke="#323634"
         stroke-width="1.12681"
         stroke-linecap="square" />
      <path
         id="rect6140-9"
         opacity="0.801282"
         d="M 268.879,127.025 H 71.7945 v 4.138 H 268.879 Z"
         stroke="#323634"
         stroke-width="1.12331"
         stroke-linecap="square" />
      <path
         id="rect6140-0-6"
         opacity="0.801282"
         d="M 267.822,137.44 H 73.9119 v 4.049 H 267.822 Z"
         stroke="#323634"
         stroke-width="1.12581"
         stroke-linecap="square" />
      <path
         id="rect6140-5-1"
         opacity="0.801282"
         d="M 265.706,147.861 H 76.381 v 3.947 h 189.325 z"
         stroke="#323634"
         stroke-width="1.12655"
         stroke-linecap="square" />
      <path
         id="rect6140-6-5"
         opacity="0.801282"
         d="M 262.239,158.364 H 82.6768 v 3.682 H 262.239 Z"
         stroke="#323634"
         stroke-width="1.1063"
         stroke-linecap="square" />
      <path
         id="rect6140-8-7"
         opacity="0.801282"
         d="M 257.19,168.838 H 87.7256 v 3.474 H 257.19 Z"
         stroke="#323634"
         stroke-width="1.09223"
         stroke-linecap="square" />
      <path
         id="rect6140-4-1"
         opacity="0.801282"
         d="M 251.099,179.333 H 93.817 v 3.225 h 157.282 z"
         stroke="#323634"
         stroke-width="1.10934"
         stroke-linecap="square" />
      <path
         id="rect6140-2-3"
         opacity="0.801282"
         d="M 242.845,189.873 H 102.071 v 2.886 h 140.774 z"
         stroke="#323634"
         stroke-width="1.099"
         stroke-linecap="square" />
      <path
         id="rect6383"
         opacity="0.801282"
         d="m 103.849,53.871 -0.458,139.624 2.862,0.009 0.459,-139.6236 z"
         stroke="#323634"
         stroke-width="1.098"
         stroke-linecap="square" />
      <path
         id="rect6385"
         opacity="0.801282"
         d="m 114.062,44.7403 -0.519,157.9517 3.238,0.011 0.519,-157.952 z"
         stroke="#323634"
         stroke-width="1.11162"
         stroke-linecap="square" />
      <path
         id="rect6387"
         opacity="0.801282"
         d="m 125.138,38.6864 -0.559,170.0746 3.487,0.012 0.558,-170.0752 z"
         stroke="#323634"
         stroke-width="1.11177"
         stroke-linecap="square" />
      <path
         id="rect6389"
         opacity="0.801282"
         d="m 135.228,34.2242 -0.587,179.0648 3.671,0.012 0.588,-179.0648 z"
         stroke="#323634"
         stroke-width="1.11177"
         stroke-linecap="square" />
      <path
         id="rect6391"
         opacity="0.801282"
         d="m 145.34,30.9724 -0.609,185.6356 3.805,0.012 0.61,-185.6351 z"
         stroke="#323634"
         stroke-width="1.11177"
         stroke-linecap="square" />
      <path
         id="rect6393"
         opacity="0.801282"
         d="m 155.505,25.117 -0.611,192.692 3.814,0.013 0.611,-192.692 z"
         stroke="#323634"
         stroke-width="1.11177"
         stroke-linecap="square" />
      <path
         id="rect6395"
         opacity="0.801282"
         d="m 165.093,25.932 -0.629,193.765 3.928,0.014 0.629,-193.7659 z"
         stroke="#323634"
         stroke-width="1.11177"
         stroke-linecap="square" />
      <path
         id="rect6397"
         opacity="0.801282"
         d="m 175.806,26.3543 -0.625,192.6447 3.899,0.013 0.624,-192.6448 z"
         stroke="#323634"
         stroke-width="1.11177"
         stroke-linecap="square" />
      <path
         id="rect6399"
         opacity="0.801282"
         d="m 186.514,28.2637 -0.621,189.2433 3.879,0.012 0.622,-189.2426 z"
         stroke="#323634"
         stroke-width="1.11177"
         stroke-linecap="square" />
      <path
         id="rect6401"
         opacity="0.801282"
         d="m 196.188,27.6734 -0.607,187.6366 3.789,0.013 0.607,-187.6369 z"
         stroke="#323634"
         stroke-width="1.11177"
         stroke-linecap="square" />
      <path
         id="rect6403"
         opacity="0.801282"
         d="m 206.354,31.5163 -0.608,181.2717 3.795,0.012 0.608,-181.2715 z"
         stroke="#323634"
         stroke-width="1.11177"
         stroke-linecap="square" />
      <path
         id="rect6405"
         opacity="0.801282"
         d="m 217.598,35.4661 -0.583,172.4299 3.636,0.012 0.582,-172.4303 z"
         stroke="#323634"
         stroke-width="1.11459"
         stroke-linecap="square" />
      <path
         id="rect6407"
         opacity="0.801282"
         d="m 228.063,41.0635 -0.546,161.5545 3.409,0.011 0.546,-161.5546 z"
         stroke="#323634"
         stroke-width="1.13386"
         stroke-linecap="square" />
      <path
         id="rect6409"
         opacity="0.801282"
         d="m 238.598,50.621 -0.483,144.258 3.016,0.01 0.483,-144.2582 z"
         stroke="#323634"
         stroke-width="1.13386"
         stroke-linecap="square" />
    </g>
    <g
       id="layer3"
       transform="translate(-2.447496,-5.769288)"
       style="fill:#a1a1a1;fill-opacity:0.97435898">
      <path
         id="path13010"
         d="m 174.928,20.6841 c -2.495,-0.0788 -4.991,-0.0651 -7.484,0.041 -26.515,1.1328 -51.518,12.6556 -69.6035,32.077 -18.0858,19.4213 -27.8012,45.1805 -27.0454,71.7079 0.7555,26.528 11.9213,51.692 31.0829,70.052 19.162,18.361 44.78,28.441 71.316,28.063 26.535,-0.377 51.855,-11.184 70.486,-30.082 18.631,-18.898 29.076,-44.37 29.076,-70.908 l -0.164,-5.748 C 271.155,90.684 260.333,66.9324 242.256,49.3113 224.18,31.6902 200.16,21.4771 174.928,20.6841 Z m -0.393,12.4941 c 22.109,0.6947 43.157,9.6435 58.996,25.0837 15.84,15.4401 25.323,36.2521 26.582,58.3361 l 0.143,5.037 c 0,23.254 -9.152,45.573 -25.477,62.133 -16.325,16.559 -38.512,26.028 -61.763,26.359 -23.252,0.331 -45.7,-8.502 -62.49,-24.591 -16.7899,-16.088 -26.5734,-38.139 -27.2348,-61.383 -0.662,-23.245 7.8512,-45.8156 23.6988,-62.8331 15.847,-17.0174 37.756,-27.114 60.989,-28.1065 2.184,-0.0927 4.371,-0.1044 6.556,-0.0352 z"
         fill="#46e453"
         style="fill:#a1a1a1;fill-opacity:0.97435898" />
    </g>
  </g>
  <defs
     id="defs1010">
    <linearGradient
       id="paint0_linear_0:1"
       x1="115.438"
       y1="229.414"
       x2="252.851"
       y2="228.74001"
       gradientUnits="userSpaceOnUse">
      <stop
         stop-color="#00B30A"
         id="stop975" />
      <stop
         offset="0.476808"
         stop-color="#B9D7BC"
         stop-opacity="0.992157"
         id="stop977" />
      <stop
         offset="1"
         stop-color="#79E07F"
         stop-opacity="0.988235"
         id="stop979" />
    </linearGradient>
    <linearGradient
       id="paint1_linear_0:1"
       x1="276.345"
       y1="87"
       x2="276.345"
       y2="25"
       gradientUnits="userSpaceOnUse">
      <stop
         stop-color="#17A81F"
         id="stop982" />
      <stop
         offset="0.476808"
         stop-color="#E9E9E9"
         stop-opacity="0.992157"
         id="stop984" />
      <stop
         offset="1"
         stop-color="#1FF42B"
         stop-opacity="0.988235"
         id="stop986" />
    </linearGradient>
    <linearGradient
       id="paint2_linear_0:1"
       x1="331.04401"
       y1="20.7071"
       x2="331.54401"
       y2="91.2071"
       gradientUnits="userSpaceOnUse">
      <stop
         stop-color="#4DFB57"
         id="stop989" />
      <stop
         offset="0.3079"
         stop-color="white"
         id="stop991" />
      <stop
         offset="1"
         stop-color="#13C21C"
         id="stop993" />
    </linearGradient>
    <linearGradient
       id="paint3_linear_0:1"
       x1="62.434799"
       y1="154.522"
       x2="62.434799"
       y2="216.522"
       gradientUnits="userSpaceOnUse">
      <stop
         stop-color="#49E557"
         id="stop996" />
      <stop
         offset="0.476808"
         stop-color="#D8E3D9"
         stop-opacity="0.992157"
         id="stop998" />
      <stop
         offset="1"
         stop-color="#18AC20"
         stop-opacity="0.988235"
         id="stop1000" />
    </linearGradient>
    <linearGradient
       id="paint4_linear_0:1"
       x1="9.6944799"
       y1="152.01601"
       x2="10.1945"
       y2="222.51601"
       gradientUnits="userSpaceOnUse">
      <stop
         stop-color="#4DFB57"
         id="stop1003" />
      <stop
         offset="0.3079"
         stop-color="white"
         id="stop1005" />
      <stop
         offset="1"
         stop-color="#13C21C"
         id="stop1007" />
    </linearGradient>
  </defs>
</svg>
