<svg width="45" height="25" viewBox="0 0 58 36" fill="none" xmlns="http://www.w3.org/2000/svg">
 <style>
    @import url(mystyles.css);
  </style>
<g id="FanOn 1" clip-path="url(#clip0_0_1)">
<g id="Q_ON 1-5">
<g id="layer2-3">
<path id="path12903-0" d="M44.1278 16.5494C44.1278 20.8822 42.4227 25.0409 39.3807 28.1264C36.3389 31.2118 32.2051 32.9761 27.8727 33.0378C23.5404 33.0995 19.3579 31.4534 16.2294 28.4559C13.101 25.4583 11.2781 21.3498 11.1548 17.0188C11.0314 12.6879 12.6176 8.48232 15.5704 5.31156C18.5233 2.14079 22.6052 0.259565 26.934 0.0746176C31.2629 -0.110346 35.4906 1.41586 38.703 4.32321C41.9156 7.23057 43.8547 11.2855 44.1012 15.6112" fill="#3F4C40"/>
</g>
<g id="layer4-8">
<path id="rect29661-7" d="M34.8554 31.149C32.6745 31.7084 30.2859 32.0083 27.8593 32.0276C25.6892 32.0431 23.5344 31.8338 21.5184 31.4116C18.5739 32.5268 17.795 34.0968 16.7212 35.6049H41.8856C40.5256 33.8673 39.9906 31.9179 34.8554 31.149V31.149Z" fill="url(#paint0_linear_0_1)" stroke="#B9E8B4" stroke-width="0.123413" stroke-linecap="square"/>
</g>
<g id="layer1-7">
<path id="rect6772-5" opacity="0.801282" d="M37.3044 25.9437C35.5929 28.9422 33.381 29.5167 31.4953 29.6141C31.151 29.6319 30.6316 29.5757 30.3263 29.5763C29.8669 29.314 29.5658 28.9318 29.6811 28.4243C30.7781 25.2426 30.4078 22.3122 29.2502 19.4676C30.0721 18.9195 30.5678 18.2704 30.9552 17.5878C32.7639 18.4741 33.8646 19.8007 35.0561 21.0709C36.0989 22.5659 37.1485 24.0957 37.3046 25.9438L37.3044 25.9437Z" fill="yellow"/>
<path id="path9203-4" opacity="0.801282" d="M18.0585 6.77243C19.7701 3.77387 21.9819 3.19937 23.8678 3.10198C24.2119 3.08422 24.7313 3.14046 25.0366 3.14002C25.496 3.40237 25.7972 3.7845 25.6818 4.29192C24.5848 7.47359 24.9551 10.4041 26.1127 13.2487C25.2908 13.7967 24.7951 14.4459 24.4077 15.1285C22.599 14.2423 21.4983 12.9156 20.3068 11.6453C19.264 10.1505 18.2144 8.62061 18.0585 6.77243Z" fill="yellow"/>
<path id="path9205-7" opacity="0.801282" d="M14.4938 19.8408C12.742 16.8656 13.3424 14.6606 14.1948 12.9757C14.3504 12.6682 14.6573 12.2454 14.8086 11.9802C15.2645 11.7119 15.7458 11.6404 16.1288 11.9926C18.345 14.5252 21.0722 15.6601 24.1159 16.0688C24.1832 17.0544 24.5002 17.807 24.9002 18.4825C23.2325 19.6118 21.5342 19.9079 19.8398 20.3107C18.0245 20.473 16.1753 20.6237 14.4939 19.8408H14.4938Z" fill="yellow"/>
<path id="path9207-7" opacity="0.801282" d="M40.5033 13.1811C42.2552 16.1563 41.6547 18.3613 40.8023 20.0462C40.6467 20.3538 40.3399 20.7765 40.1886 21.0417C39.7326 21.3101 39.2514 21.3816 38.8682 21.0294C36.6521 18.4967 33.925 17.362 30.8811 16.9532C30.8139 15.9675 30.4968 15.2149 30.0968 14.5395C31.7647 13.4103 33.4628 13.1141 35.1572 12.7113C36.9727 12.5491 38.8219 12.3982 40.5033 13.1811V13.1811Z" fill="yellow"/>
<path id="path9209-1" opacity="0.801282" d="M31.0296 3.23982C34.482 3.19167 36.1001 4.80539 37.1416 6.38051C37.3316 6.66797 37.5468 7.14408 37.7024 7.40679C37.7096 7.93577 37.5334 8.38927 37.0377 8.54754C33.7398 9.21829 31.4033 11.0253 29.5404 13.4671C28.651 13.0373 27.84 12.9399 27.0552 12.953C26.9003 10.9448 27.4841 9.32281 27.9734 7.65141C28.7318 5.99398 29.5166 4.31287 31.0296 3.23997V3.23982Z" fill="yellow"/>
<path id="path9211-6" opacity="0.801282" d="M24.1937 29.5215C20.7413 29.5697 19.1232 27.956 18.0817 26.381C17.8917 26.0935 17.6765 25.6174 17.5211 25.3547C17.5137 24.8257 17.6899 24.3721 18.1857 24.2139C21.4837 23.5431 23.8202 21.7361 25.6829 19.2944C26.5724 19.7241 27.3833 19.8215 28.1683 19.8084C28.3231 21.8167 27.7392 23.4386 27.2499 25.1099C26.4915 26.7674 25.7067 28.4486 24.1937 29.5214V29.5215Z" fill="yellow"/>
<path id="path9235-7" opacity="0.801282" d="M24.4946 18.016C24.0662 17.2033 23.9749 16.2548 24.2404 15.3753C24.5058 14.496 25.1068 13.7564 25.9134 13.3166C26.7197 12.8766 27.667 12.7719 28.5501 13.0248C29.4332 13.2777 30.1813 13.8681 30.6325 14.6682C31.0838 15.4684 31.202 16.4139 30.9617 17.3006C30.7214 18.1871 30.1418 18.9435 29.3481 19.4062C28.5545 19.8687 27.6107 20.0005 26.7207 19.7727C25.8307 19.5451 25.0662 18.9763 24.5924 18.1894" fill="#B0D6B2"/>
<path id="rect9339-4" opacity="0.801282" d="M28.2896 19.1694L28.8952 18.9423C29.0057 18.9009 29.0647 18.7768 29.0271 18.6649C28.9896 18.5531 28.8694 18.4961 28.759 18.5376L28.1535 18.7647C28.0431 18.806 27.984 18.9302 28.0216 19.0421C28.0593 19.1539 28.1793 19.2109 28.2896 19.1694Z" fill="#ECECEC"/>
<path id="rect9339-8-9" opacity="0.801282" d="M26.5642 14.0253L27.1697 13.7982C27.2801 13.7567 27.3392 13.6325 27.3017 13.5206C27.2639 13.409 27.1439 13.3518 27.0336 13.3933L26.428 13.6204C26.3175 13.6619 26.2586 13.7861 26.2961 13.8978C26.3337 14.0096 26.4538 14.0666 26.5642 14.0253Z" fill="#ECECEC"/>
<path id="path11875-0" opacity="0.801282" d="M25.6575 17.3741C25.3936 16.8737 25.3375 16.2895 25.5009 15.7478C25.6645 15.2062 26.0345 14.7507 26.5311 14.4799C27.0279 14.209 27.6111 14.1445 28.1551 14.3003C28.6989 14.456 29.1595 14.8196 29.4376 15.3124C29.7154 15.8051 29.7883 16.3875 29.6403 16.9334C29.4923 17.4795 29.1352 17.9453 28.6465 18.2302C28.1577 18.5151 27.5765 18.5963 27.0284 18.456C26.4803 18.3158 26.0095 17.9654 25.7177 17.4808" fill="#494949"/>
<path id="path11966-4" opacity="0.801282" d="M26.4672 16.9473C26.3155 16.6596 26.2832 16.3238 26.3772 16.0124C26.4712 15.7009 26.684 15.4391 26.9695 15.2833C27.2551 15.1276 27.5904 15.0905 27.9032 15.1801C28.2159 15.2696 28.4807 15.4787 28.6405 15.762C28.8004 16.0453 28.8422 16.3801 28.7571 16.6941C28.6721 17.008 28.4667 17.2758 28.1857 17.4397C27.9047 17.6035 27.5705 17.65 27.2554 17.5695C26.9403 17.4889 26.6696 17.2874 26.5018 17.0087" fill="#ECECEC"/>
</g>
<g id="layer7-0">
<path id="rect15660-9" d="M42.5469 11.9671L55.2526 11.9523V22.4049H42.937C42.8923 16.7722 42.5921 14.9489 42.5469 11.9671Z" fill="url(#paint1_linear_0_1)"/>
<path id="rect26505-9" d="M57.0361 11.0562H54.5872V23.301H57.0361V11.0562Z" fill="url(#paint2_linear_0_1)" stroke="#23EE8A" stroke-width="0.18512" stroke-linecap="square"/>
<path id="path29629-6" d="M13.4253 22.8309L0.857544 22.8112L0.861173 11.546H13.8116C12.0896 17.105 13.1236 20.4835 13.4253 22.8309Z" fill="url(#paint3_linear_0_1)"/>
<path id="rect26505-0-8" d="M2.44531 11.0562H-0.00366211V23.301H2.44531V11.0562Z" fill="url(#paint4_linear_0_1)" stroke="#23EE8A" stroke-width="0.18512" stroke-linecap="square"/>
</g>
<g id="layer5-6">
<path id="rect6140-94" opacity="0.801282" d="M39.6192 5.61194H15.8063V6.10013H39.6192V5.61194Z" stroke="#323634" stroke-width="0.180214" stroke-linecap="square"/>
<path id="rect6140-0-9" opacity="0.801282" d="M40.9218 7.26941H14.0997V7.82874H40.9218V7.26941Z" stroke="#323634" stroke-width="0.18394" stroke-linecap="square"/>
<path id="rect6140-5-11" opacity="0.801282" d="M42.1314 8.94666H13.2942V9.53787H42.1314V8.94666Z" stroke="#323634" stroke-width="0.18512" stroke-linecap="square"/>
<path id="rect6140-6-7" opacity="0.801282" d="M42.5338 10.6189H12.3145V11.2517H42.5338V10.6189Z" stroke="#323634" stroke-width="0.183602" stroke-linecap="square"/>
<path id="rect6140-8-4" opacity="0.801282" d="M43.1675 12.3029H11.8541V12.9541H43.1675V12.3029Z" stroke="#323634" stroke-width="0.184087" stroke-linecap="square"/>
<path id="rect6140-4-4" opacity="0.801282" d="M43.4552 13.9874H11.4509V14.6555H43.4552V13.9874Z" stroke="#323634" stroke-width="0.183819" stroke-linecap="square"/>
<path id="rect6140-2-4" opacity="0.801282" d="M43.5992 15.6788H11.3646V16.3503H43.5992V15.6788Z" stroke="#323634" stroke-width="0.183969" stroke-linecap="square"/>
<path id="rect6140-9-2" opacity="0.801282" d="M43.455 17.37H11.278V18.0456H43.455V17.37Z" stroke="#323634" stroke-width="0.183398" stroke-linecap="square"/>
<path id="rect6140-0-6-8" opacity="0.801282" d="M43.2824 19.0704H11.6237V19.7315H43.2824V19.0704Z" stroke="#323634" stroke-width="0.183806" stroke-linecap="square"/>
<path id="rect6140-5-1-1" opacity="0.801282" d="M42.9369 20.7717H12.0267V21.4161H42.9369V20.7717Z" stroke="#323634" stroke-width="0.183927" stroke-linecap="square"/>
<path id="rect6140-6-5-1" opacity="0.801282" d="M42.371 22.4866H13.0547V23.0877H42.371V22.4866Z" stroke="#323634" stroke-width="0.18062" stroke-linecap="square"/>
<path id="rect6140-8-7-8" opacity="0.801282" d="M41.5466 24.1965H13.8789V24.7637H41.5466V24.1965Z" stroke="#323634" stroke-width="0.178323" stroke-linecap="square"/>
<path id="rect6140-4-1-1" opacity="0.801282" d="M40.5521 25.91H14.8734V26.4366H40.5521V25.91Z" stroke="#323634" stroke-width="0.181117" stroke-linecap="square"/>
<path id="rect6140-2-3-6" opacity="0.801282" d="M39.2046 27.6309H16.2211V28.102H39.2046V27.6309Z" stroke="#323634" stroke-width="0.179429" stroke-linecap="square"/>
<path id="rect6383-1" opacity="0.801282" d="M16.5113 5.42651L16.4365 28.2223L16.9038 28.2237L16.9787 5.42805L16.5113 5.42651Z" stroke="#323634" stroke-width="0.179265" stroke-linecap="square"/>
<path id="rect6385-4" opacity="0.801282" d="M18.1787 3.93579L18.094 29.7238L18.6226 29.7256L18.7074 3.93754L18.1787 3.93579Z" stroke="#323634" stroke-width="0.181489" stroke-linecap="square"/>
<path id="rect6387-0" opacity="0.801282" d="M19.9871 2.94739L19.8959 30.7147L20.4652 30.7166L20.5563 2.94925L19.9871 2.94739Z" stroke="#323634" stroke-width="0.181513" stroke-linecap="square"/>
<path id="rect6389-5" opacity="0.801282" d="M21.6344 2.21887L21.5386 31.4539L22.1379 31.4559L22.2339 2.22083L21.6344 2.21887Z" stroke="#323634" stroke-width="0.181513" stroke-linecap="square"/>
<path id="rect6391-0" opacity="0.801282" d="M23.2853 1.68787L23.1859 31.9957L23.8071 31.9977L23.9067 1.68991L23.2853 1.68787Z" stroke="#323634" stroke-width="0.181513" stroke-linecap="square"/>
<path id="rect6393-2" opacity="0.801282" d="M24.945 0.731934L24.8452 32.1919L25.4679 32.194L25.5677 0.734056L24.945 0.731934Z" stroke="#323634" stroke-width="0.181513" stroke-linecap="square"/>
<path id="rect6395-2" opacity="0.801282" d="M26.5104 0.86499L26.4077 32.5001L27.049 32.5024L27.1517 0.867129L26.5104 0.86499Z" stroke="#323634" stroke-width="0.181513" stroke-linecap="square"/>
<path id="rect6397-0" opacity="0.801282" d="M28.2594 0.93396L28.1573 32.3862L28.7939 32.3883L28.8958 0.936066L28.2594 0.93396Z" stroke="#323634" stroke-width="0.181513" stroke-linecap="square"/>
<path id="rect6399-0" opacity="0.801282" d="M30.0076 1.24573L29.9062 32.1426L30.5396 32.1446L30.6411 1.2478L30.0076 1.24573Z" stroke="#323634" stroke-width="0.181513" stroke-linecap="square"/>
<path id="rect6401-2" opacity="0.801282" d="M31.5871 1.14929L31.488 31.7838L32.1066 31.786L32.2058 1.15137L31.5871 1.14929Z" stroke="#323634" stroke-width="0.181513" stroke-linecap="square"/>
<path id="rect6403-8" opacity="0.801282" d="M33.2468 1.77673L33.1476 31.3721L33.7672 31.3741L33.8664 1.77873L33.2468 1.77673Z" stroke="#323634" stroke-width="0.181513" stroke-linecap="square"/>
<path id="rect6405-5" opacity="0.801282" d="M35.0826 2.42163L34.9874 30.5735L35.5811 30.5754L35.6761 2.42352L35.0826 2.42163Z" stroke="#323634" stroke-width="0.181974" stroke-linecap="square"/>
<path id="rect6407-9" opacity="0.801282" d="M36.7912 3.33545L36.702 29.7117L37.2586 29.7135L37.3477 3.33723L36.7912 3.33545Z" stroke="#323634" stroke-width="0.18512" stroke-linecap="square"/>
<path id="rect6409-5" opacity="0.801282" d="M38.5112 4.89587L38.4324 28.4482L38.9248 28.4498L39.0036 4.89747L38.5112 4.89587Z" stroke="#323634" stroke-width="0.18512" stroke-linecap="square"/>
</g>
<g id="layer3-5">
<path id="path13010-7" d="M28.1161 0.00822113C27.7088 -0.00464418 27.3013 -0.00240739 26.8943 0.0149151C22.5653 0.199862 18.4832 2.08114 15.5304 5.25198C12.5776 8.4228 10.9915 12.6284 11.1149 16.9594C11.2382 21.2905 13.0612 25.3989 16.1896 28.3965C19.3181 31.3942 23.5006 33.0399 27.833 32.9782C32.1653 32.9166 36.2992 31.1522 39.341 28.0668C42.3828 24.9814 44.0881 20.8227 44.0881 16.49L44.0613 15.5516C43.8267 11.4368 42.0598 7.55896 39.1085 4.68205C36.1573 1.80514 32.2356 0.137691 28.1161 0.00822113ZM28.052 2.04807C31.6616 2.16149 35.098 3.62252 37.684 6.14337C40.2701 8.66421 41.8183 12.0621 42.0239 15.6676L42.0472 16.49C42.0472 20.2866 40.553 23.9305 37.8877 26.6342C35.2224 29.3377 31.6001 30.8836 27.804 30.9377C24.0077 30.9917 20.3428 29.5496 17.6015 26.9228C14.8603 24.2962 13.263 20.696 13.155 16.9011C13.0469 13.106 14.4369 9.42101 17.0242 6.64264C19.6115 3.86429 23.1885 2.21586 26.9816 2.05382C27.3382 2.03869 27.6952 2.03678 28.052 2.04807V2.04807Z" fill="#46E453"/>
</g>
</g>
</g>
<defs>
<linearGradient id="paint0_linear_0_1" x1="18.4035" y1="34.0865" x2="40.8383" y2="33.9765" gradientUnits="userSpaceOnUse">
<stop stop-color="#00B30A"/>
<stop offset="0.476808" stop-color="#B9D7BC" stop-opacity="0.992157"/>
<stop offset="1" stop-color="#79E07F" stop-opacity="0.988235"/>
</linearGradient>
<linearGradient id="paint1_linear_0_1" x1="46.7996" y1="22.3363" x2="46.7996" y2="12.2138" gradientUnits="userSpaceOnUse">
<stop stop-color="#17A81F"/>
<stop offset="0.476808" stop-color="#E9E9E9" stop-opacity="0.992157"/>
<stop offset="1" stop-color="#1FF42B" stop-opacity="0.988235"/>
</linearGradient>
<linearGradient id="paint2_linear_0_1" x1="55.73" y1="11.4643" x2="55.8116" y2="22.9745" gradientUnits="userSpaceOnUse">
<stop stop-color="#4DFB57"/>
<stop offset="0.3079" stop-color="white"/>
<stop offset="1" stop-color="#13C21C"/>
</linearGradient>
<linearGradient id="paint3_linear_0_1" x1="9.7499" y1="11.6148" x2="9.7499" y2="21.7372" gradientUnits="userSpaceOnUse">
<stop stop-color="#49E557"/>
<stop offset="0.476808" stop-color="#D8E3D9" stop-opacity="0.992157"/>
<stop offset="1" stop-color="#18AC20" stop-opacity="0.988235"/>
</linearGradient>
<linearGradient id="paint4_linear_0_1" x1="1.13919" y1="11.4643" x2="1.22082" y2="22.9745" gradientUnits="userSpaceOnUse">
<stop stop-color="#4DFB57"/>
<stop offset="0.3079" stop-color="white"/>
<stop offset="1" stop-color="#13C21C"/>
</linearGradient>
<clipPath id="clip0_0_1">
<rect width="57.2249" height="35.6666" fill="white"/>
</clipPath>
</defs>
</svg>
